<?xml version="1.0" encoding="iso-8859-1"?>
<!-- Generator: Adobe Illustrator 19.0.0, SVG Export Plug-In . SVG Version: 6.00 Build 0)  -->
<svg version="1.1" id="Layer_1" xmlns="http://www.w3.org/2000/svg" xmlns:xlink="http://www.w3.org/1999/xlink" x="0px" y="0px"
	 viewBox="0 0 512 512" style="enable-background:new 0 0 512 512;" xml:space="preserve">
<path style="fill:#D2D5D7;" d="M381.754,512H130.246c-11.677,0-19.761-10.779-17.965-21.558l35.93-140.126h215.579l35.93,140.126
	C401.516,501.221,393.432,512,381.754,512"/>
<polygon style="fill:#DAE7EF;" points="363.789,350.316 148.211,350.316 103.298,98.807 408.702,98.807 "/>
<path style="fill:#BBD7EB;" d="M367.382,354.807H144.618L97.909,94.316h316.182L367.382,354.807z M151.804,345.825h208.393
	l43.116-242.526H108.688L151.804,345.825z"/>
<g transform="translate(29 17)">
	<path style="fill:#DAE7EF;" d="M325.807,144.684L298.86,297.386"/>
	<path style="fill:#BBD7EB;" d="M298.86,306.368c-0.898,0-0.898,0-1.796,0c-4.491-0.898-8.084-5.389-7.186-10.779l26.947-152.702
		c0.898-4.491,5.389-8.084,10.779-7.186c4.491,0.898,8.084,5.389,7.186,10.779l-26.947,152.702
		C306.944,303.674,303.351,306.368,298.86,306.368z"/>
</g>
<path style="fill:#38454F;" d="M408.702,107.789H103.298c-19.761,0-35.93-16.168-35.93-35.93s16.168-35.93,35.93-35.93h305.404
	c19.761,0,35.93,16.168,35.93,35.93S428.463,107.789,408.702,107.789"/>
<g>
	<path style="fill:#546A79;" d="M354.807,35.93v-8.982C354.807,11.677,343.13,0,327.86,0H184.14
		c-15.27,0-26.947,11.677-26.947,26.947v8.982H354.807z"/>
	<path style="fill:#546A79;" d="M399.719,80.842H112.281c-5.389,0-8.982-3.593-8.982-8.982s3.593-8.982,8.982-8.982h287.439
		c5.389,0,8.982,3.593,8.982,8.982C408.702,77.249,405.109,80.842,399.719,80.842"/>
</g>
<path style="fill:#DAE7EF;" d="M334.147,278.456h-33.235"/>
<path style="fill:#BBD7EB;" d="M334.147,287.439h-33.235c-5.389,0-8.982-3.593-8.982-8.982c0-5.389,3.593-8.982,8.982-8.982h33.235
	c5.389,0,8.982,3.593,8.982,8.982C343.13,283.846,339.537,287.439,334.147,287.439z"/>
<g transform="translate(27 25)">
	<path style="fill:#DAE7EF;" d="M315.232,208.544h-32.337"/>
	<path style="fill:#BBD7EB;" d="M315.232,217.526h-32.337c-5.389,0-8.982-3.593-8.982-8.982c0-5.389,3.593-8.982,8.982-8.982h32.337
		c5.389,0,8.982,3.593,8.982,8.982C324.214,213.933,319.723,217.526,315.232,217.526z"/>
</g>
<g transform="translate(28 20)">
	<path style="fill:#DAE7EF;" d="M321.418,168.632h-30.54"/>
	<path style="fill:#BBD7EB;" d="M322.316,177.614h-31.439c-5.389,0-8.982-3.593-8.982-8.982c0-5.389,3.593-8.982,8.982-8.982h31.439
		c5.389,0,8.982,3.593,8.982,8.982C331.298,174.021,326.807,177.614,322.316,177.614z"/>
</g>
<path style="fill:#FAF6E5;" d="M291.93,467.088h-71.86c-19.761,0-35.93-16.168-35.93-35.93s16.168-35.93,35.93-35.93h71.86
	c19.761,0,35.93,16.168,35.93,35.93S311.691,467.088,291.93,467.088"/>
<path style="fill:#38454F;" d="M273.965,440.14h-35.93c-5.389,0-8.982-3.593-8.982-8.982s3.593-8.982,8.982-8.982h35.93
	c5.389,0,8.982,3.593,8.982,8.982S279.354,440.14,273.965,440.14"/>
<g>
</g>
<g>
</g>
<g>
</g>
<g>
</g>
<g>
</g>
<g>
</g>
<g>
</g>
<g>
</g>
<g>
</g>
<g>
</g>
<g>
</g>
<g>
</g>
<g>
</g>
<g>
</g>
<g>
</g>
</svg>
